<?xml version="1.0" encoding="UTF-8"?>
<!DOCTYPE svg PUBLIC "-//W3C//DTD SVG 1.1//EN" "http://www.w3.org/Graphics/SVG/1.1/DTD/svg11.dtd">
<!-- Creator: CorelDRAW -->
<svg xmlns="http://www.w3.org/2000/svg" xml:space="preserve" width="56.4444mm" height="11.9863mm" version="1.1" style="shape-rendering:geometricPrecision; text-rendering:geometricPrecision; image-rendering:optimizeQuality; fill-rule:evenodd; clip-rule:evenodd"
viewBox="0 0 621.34 131.94"
 xmlns:xlink="http://www.w3.org/1999/xlink"
 xmlns:xodm="http://www.corel.com/coreldraw/odm/2003">
 <defs>
  <style type="text/css">
   <![CDATA[
    .fil0 {fill:#FEFEFE;fill-rule:nonzero}
   ]]>
  </style>
 </defs>
 <g id="Camada_x0020_1">
  <metadata id="CorelCorpID_0Corel-Layer"/>
  <path class="fil0" d="M335.27 131.14l0 -66.95 25.61 0 0 -18.9 -25.61 0 0 -5.83c0,-10.6 5.65,-15.55 13.07,-15.55 4.42,0 8.66,1.59 13.25,4.59l7.95 -16.08c-7.06,-4.59 -15.01,-7.07 -22.61,-7.07 -17.49,0 -33.21,10.78 -33.21,34.09l0 5.83 0 85.85 21.55 0zm-142.85 -128.83c-17.58,-4.34 -35.26,-1.15 -49.62,7.53 -14.37,8.67 -25.43,22.83 -29.77,40.41 -0.51,2.08 -0.92,4.16 -1.23,6.23l-49.24 0 0 21.16 32.09 0 0 22.23c-9.86,7.89 -18.46,10.04 -28.32,10.04 -31.19,0 -43.21,-21.33 -43.21,-41.95 0,-25.82 16.32,-46.25 43.21,-46.25 10.94,0 23.48,4.48 31.91,12.55l14.7 -15.06c-12.91,-12.73 -29.76,-19.18 -46.61,-19.18 -44.28,0 -66.33,32.63 -66.33,67.94 0,32.99 19.18,64 66.33,64 22.05,0 37.65,-8.43 50.02,-22.59l0 -17.71c1.21,2.84 2.62,5.58 4.21,8.21 8.67,14.37 22.83,25.43 40.41,29.77 17.58,4.34 35.26,1.15 49.62,-7.53 1.81,-1.1 3.58,-2.28 5.28,-3.54 2.65,-1.97 5.75,-4.74 8.12,-7.21l0 0 -0.01 0.01c0.27,0.36 0.51,0.76 0.77,1.12 0.56,0.79 1.14,1.57 1.75,2.32 5.97,7.43 14.34,13.03 24.31,15.49 12.09,2.99 24.25,0.79 34.14,-5.18 9.88,-5.97 17.49,-15.71 20.48,-27.8 2.99,-12.09 0.79,-24.25 -5.18,-34.14 -5.97,-9.88 -15.71,-17.49 -27.8,-20.48 -9.15,-2.26 -18.33,-1.55 -26.54,1.51 2.44,7.74 3.6,15.95 3.29,24.33 0.37,-0.26 0.75,-0.5 1.14,-0.74 4.78,-2.89 10.67,-3.95 16.53,-2.51 5.85,1.45 10.57,5.13 13.46,9.91 2.89,4.78 3.95,10.67 2.51,16.52 -1.45,5.86 -5.13,10.57 -9.91,13.46 -4.78,2.89 -10.67,3.95 -16.52,2.5 -5.86,-1.45 -10.57,-5.13 -13.46,-9.91 -2.45,-4.06 -3.18,-7.57 -3.12,-11.09 0.02,-0.59 0.07,-1.62 0.23,-3.16 0.01,-0.09 0.12,-1.02 0.16,-1.35l-0.06 0.24 0.12 -0.45 0.01 -0.02 0 -0.01 0 -0.01 0 -0.01 0 -0 0 -0.01 0 -0.01 0 -0.01 0 -0 0.01 -0.05c0.86,-5.44 1.95,-10.23 1.95,-15.86 0,-12.36 -3.17,-23.63 -9.39,-33.94 -8.67,-14.37 -22.83,-25.43 -40.41,-29.77zm6.14 99.88c-9.27,5.6 -20.67,7.66 -32.01,4.85 -11.34,-2.8 -20.48,-9.93 -26.07,-19.2 -5.6,-9.27 -7.66,-20.67 -4.85,-32.01 2.8,-11.34 9.93,-20.48 19.2,-26.07 9.27,-5.6 20.67,-7.65 32.01,-4.85 11.34,2.8 20.47,9.94 26.07,19.2 12.06,19.97 5.62,46.03 -14.35,58.08zm236.72 -82.73c6.11,0 11.07,4.96 11.07,11.07 0,6.11 -4.96,11.07 -11.07,11.07 -6.11,0 -11.07,-4.96 -11.07,-11.07 0,-6.11 4.96,-11.07 11.07,-11.07zm185.66 73.4c3.36,-35.86 -14.84,-53.88 -43.99,-53.88 -28.26,0 -46.29,19.08 -46.29,45.58 0,27.91 17.84,46.46 47.87,46.46 13.25,0 28.26,-4.59 37.45,-14.13l-13.78 -13.6c-4.95,5.12 -15.37,8.13 -23.32,8.13 -15.19,0 -24.56,-7.77 -25.97,-18.55l68.01 0zm-67.66 -17.84c3.18,-11.31 12.72,-16.96 24.38,-16.96 12.37,0 21.2,5.65 22.61,16.96l-46.99 0zm-34.35 28.44c-5.3,5.3 -12.19,7.24 -19.08,7.24 -13.43,0 -24.73,-8.83 -24.73,-25.44 0,-15.19 10.6,-25.79 25.08,-25.79 6.01,0 12.37,2.3 17.49,6.89l13.6 -14.31c-9.54,-9.36 -19.08,-12.89 -31.44,-12.89 -25.26,0 -46.28,15.19 -46.28,46.11 0,30.91 21.02,46.11 46.28,46.11 12.9,0 23.49,-3.89 33.56,-13.78l-14.49 -14.13zm-72.88 -58.12l0 85.8 -21.55 0 0 -85.8 21.55 0zm-55.33 85.8l0 -66.95 25.61 0 0 -18.9 -25.61 0 0 -5.83c0,-10.6 5.65,-15.55 13.07,-15.55 4.42,0 8.66,1.59 13.25,4.59l7.95 -16.08c-7.07,-4.59 -15.01,-7.07 -22.61,-7.07 -17.49,0 -33.21,10.78 -33.21,34.09l0 91.68 21.55 0z"/>
 </g>
</svg>
