<?xml version="1.0" encoding="UTF-8"?>
<!DOCTYPE svg PUBLIC "-//W3C//DTD SVG 1.1//EN" "http://www.w3.org/Graphics/SVG/1.1/DTD/svg11.dtd">
<!-- Creator: CorelDRAW -->
<svg xmlns="http://www.w3.org/2000/svg" xml:space="preserve" width="4.9389mm" height="3.5278mm" version="1.1" style="shape-rendering:geometricPrecision; text-rendering:geometricPrecision; image-rendering:optimizeQuality; fill-rule:evenodd; clip-rule:evenodd"
viewBox="0 0 4.9 3.5"
 xmlns:xlink="http://www.w3.org/1999/xlink"
 xmlns:xodm="http://www.corel.com/coreldraw/odm/2003">
 <defs>
  <style type="text/css">
   <![CDATA[
    .fil0 {fill:#FEFEFE;fill-rule:nonzero}
   ]]>
  </style>
 </defs>
 <g id="Camada_x0020_1">
  <metadata id="CorelCorpID_0Corel-Layer"/>
  <path class="fil0" d="M4.37 0l-3.85 0c-0.29,0 -0.52,0.24 -0.52,0.52l0 2.45c0,0.29 0.24,0.52 0.52,0.52l3.85 0c0.29,0 0.52,-0.24 0.52,-0.52l0 -2.45c0,-0.29 -0.24,-0.52 -0.52,-0.52zm-1.81 1.71c-0.07,0.05 -0.16,0.05 -0.23,0l-1.7 -1.36 3.64 0 -1.7 1.36zm-1 -0.17l-1.21 1.35 0 -2.31 1.21 0.97zm0.27 0.22l0.28 0.22 -0 0c0.2,0.15 0.47,0.15 0.67,0l0.28 -0.22 1.25 1.39 -3.73 0 1.25 -1.39zm1.5 -0.22l1.21 -0.97 0 2.31 -1.21 -1.35z"/>
 </g>
</svg>
