<?xml version="1.0" encoding="UTF-8"?>
<!DOCTYPE svg PUBLIC "-//W3C//DTD SVG 1.1//EN" "http://www.w3.org/Graphics/SVG/1.1/DTD/svg11.dtd">
<!-- Creator: CorelDRAW -->
<svg xmlns="http://www.w3.org/2000/svg" xml:space="preserve" width="54.6806mm" height="29.3318mm" version="1.1" style="shape-rendering:geometricPrecision; text-rendering:geometricPrecision; image-rendering:optimizeQuality; fill-rule:evenodd; clip-rule:evenodd"
viewBox="0 0 463.81 248.8"
 xmlns:xlink="http://www.w3.org/1999/xlink"
 xmlns:xodm="http://www.corel.com/coreldraw/odm/2003">
 <defs>
  <style type="text/css">
   <![CDATA[
    .fil0 {fill:#FEFEFE;fill-rule:nonzero}
   ]]>
  </style>
 </defs>
 <g id="Camada_x0020_1">
  <metadata id="CorelCorpID_0Corel-Layer"/>
  <path class="fil0" d="M241.26 94.37l0 -48.18 18.43 0 0 -13.6 -18.43 0 0 -4.19c0,-7.63 4.07,-11.19 9.41,-11.19 3.18,0 6.23,1.14 9.53,3.31l5.72 -11.57c-5.08,-3.3 -10.81,-5.09 -16.27,-5.09 -12.59,0 -23.9,7.75 -23.9,24.53l0 4.19 0 61.78 15.51 0zm-102.8 -92.71c-12.65,-3.13 -25.37,-0.83 -35.71,5.42 -10.34,6.24 -18.3,16.43 -21.42,29.08 -0.37,1.49 -0.66,2.99 -0.88,4.48l-35.43 0 0 15.22 23.09 0 0 16c-7.1,5.68 -13.29,7.23 -20.38,7.23 -22.45,0 -31.09,-15.35 -31.09,-30.19 0,-18.58 11.74,-33.28 31.09,-33.28 7.87,0 16.9,3.22 22.96,9.03l10.58 -10.84c-9.29,-9.16 -21.42,-13.8 -33.54,-13.8 -31.87,0 -47.73,23.48 -47.73,48.89 0,23.74 13.8,46.06 47.73,46.06 15.87,0 27.09,-6.06 35.99,-16.25l0 -12.74c0.87,2.04 1.88,4.02 3.03,5.91 6.24,10.34 16.43,18.3 29.08,21.42 12.65,3.13 25.37,0.83 35.71,-5.42 1.3,-0.79 2.57,-1.64 3.8,-2.55 1.9,-1.42 4.14,-3.41 5.85,-5.19l0 0 -0.01 0.01c0.19,0.26 0.37,0.55 0.55,0.81 0.4,0.57 0.82,1.13 1.26,1.67 4.3,5.34 10.32,9.38 17.49,11.15 8.7,2.15 17.45,0.57 24.57,-3.73 7.11,-4.3 12.59,-11.3 14.74,-20 2.15,-8.7 0.57,-17.45 -3.73,-24.56 -4.29,-7.11 -11.3,-12.59 -20,-14.74 -6.58,-1.63 -13.19,-1.12 -19.1,1.08 1.76,5.57 2.59,11.48 2.37,17.51 0.27,-0.19 0.54,-0.36 0.82,-0.53 3.44,-2.08 7.68,-2.84 11.89,-1.8 4.21,1.04 7.61,3.69 9.68,7.13 2.08,3.44 2.84,7.68 1.8,11.89 -1.04,4.21 -3.69,7.61 -7.13,9.68 -3.44,2.08 -7.68,2.84 -11.89,1.8 -4.21,-1.04 -7.61,-3.69 -9.68,-7.13 -1.76,-2.92 -2.29,-5.45 -2.25,-7.98 0.01,-0.43 0.05,-1.16 0.17,-2.28 0.01,-0.06 0.09,-0.74 0.11,-0.97l-0.04 0.17 0.08 -0.32 0 -0.01 0 -0.01 0 -0.01 0 -0 0 -0 0 -0 0 -0 0 -0.01 0 -0 0.01 -0.03c0.62,-3.91 1.4,-7.36 1.4,-11.41 0,-8.9 -2.28,-17.01 -6.76,-24.43 -6.24,-10.34 -16.43,-18.3 -29.08,-21.42zm31.14 66.37l0.02 -0.03 0.15 -0.3 -0.15 0.3 -0.02 0.03zm-26.72 5.5c-6.67,4.03 -14.87,5.51 -23.04,3.49 -8.16,-2.02 -14.73,-7.15 -18.76,-13.82 -4.03,-6.67 -5.51,-14.87 -3.49,-23.04 2.02,-8.16 7.15,-14.73 13.82,-18.76 6.67,-4.03 14.87,-5.51 23.04,-3.49 8.16,2.02 14.73,7.15 18.76,13.82 8.68,14.37 4.04,33.12 -10.33,41.8zm170.35 -59.54c4.4,0 7.97,3.57 7.97,7.97 0,4.4 -3.57,7.97 -7.97,7.97 -4.4,0 -7.97,-3.57 -7.97,-7.97 0,-4.4 3.57,-7.97 7.97,-7.97zm133.6 52.82c2.42,-25.8 -10.68,-38.77 -31.65,-38.77 -20.34,0 -33.31,13.73 -33.31,32.8 0,20.08 12.84,33.43 34.45,33.43 9.53,0 20.34,-3.3 26.95,-10.17l-9.92 -9.79c-3.56,3.69 -11.06,5.85 -16.78,5.85 -10.93,0 -17.67,-5.59 -18.69,-13.35l48.94 0zm-48.69 -12.84c2.29,-8.14 9.15,-12.2 17.54,-12.2 8.9,0 15.25,4.07 16.27,12.2l-33.82 0zm-24.72 20.47c-3.81,3.81 -8.77,5.21 -13.73,5.21 -9.66,0 -17.8,-6.36 -17.8,-18.31 0,-10.93 7.63,-18.56 18.05,-18.56 4.32,0 8.9,1.65 12.58,4.96l9.79 -10.3c-6.86,-6.74 -13.73,-9.28 -22.63,-9.28 -18.18,0 -33.31,10.93 -33.31,33.18 0,22.25 15.13,33.18 33.31,33.18 9.28,0 16.91,-2.8 24.15,-9.92l-10.42 -10.17zm-52.44 -41.82l0 61.74 -15.51 0 0 -61.74 15.51 0zm-39.81 61.74l0 -48.18 18.43 0 0 -13.6 -18.43 0 0 -4.19c0,-7.63 4.07,-11.19 9.41,-11.19 3.18,0 6.23,1.14 9.53,3.31l5.72 -11.57c-5.09,-3.3 -10.81,-5.09 -16.27,-5.09 -12.58,0 -23.9,7.75 -23.9,24.53l0 65.97 15.51 0z"/>
  <path class="fil0" d="M28.96 195.83c-5.16,0 -9.25,-1.54 -12.26,-4.61l3.35 -4.7c2.49,2.61 5.57,3.91 9.22,3.91 1.59,0 2.83,-0.31 3.72,-0.93 0.88,-0.62 1.33,-1.38 1.33,-2.28 0,-0.78 -0.41,-1.44 -1.24,-1.96 -0.83,-0.52 -1.86,-0.9 -3.09,-1.13 -1.23,-0.23 -2.57,-0.57 -4.02,-1 -1.45,-0.44 -2.79,-0.93 -4.02,-1.48 -1.23,-0.55 -2.26,-1.42 -3.09,-2.61 -0.83,-1.19 -1.24,-2.64 -1.24,-4.35 0,-2.49 1,-4.59 3,-6.29 2,-1.7 4.67,-2.54 8,-2.54 4.61,0 8.38,1.35 11.31,4.04l-3.44 4.52c-2.29,-2.12 -5.1,-3.17 -8.44,-3.17 -1.3,0 -2.32,0.26 -3.04,0.78 -0.72,0.52 -1.09,1.23 -1.09,2.13 0,0.7 0.41,1.28 1.24,1.76 0.83,0.48 1.86,0.83 3.09,1.07 1.23,0.23 2.57,0.57 4,1.02 1.43,0.45 2.77,0.96 4,1.52 1.23,0.57 2.26,1.45 3.09,2.65 0.83,1.2 1.24,2.65 1.24,4.33 0,2.78 -0.99,5.03 -2.98,6.74 -1.99,1.71 -4.86,2.57 -8.63,2.57zm33.49 -3.2c-2.03,2.13 -4.73,3.2 -8.09,3.2 -3.36,0 -6.05,-1.07 -8.07,-3.2 -2.02,-2.13 -3.02,-4.75 -3.02,-7.85 0,-3.1 1.01,-5.71 3.02,-7.83 2.02,-2.12 4.7,-3.17 8.07,-3.17 3.36,0 6.06,1.06 8.09,3.17 2.03,2.12 3.04,4.73 3.04,7.83 0,3.1 -1.02,5.72 -3.04,7.85zm-12 -3.48c0.96,1.17 2.26,1.76 3.91,1.76 1.65,0 2.96,-0.59 3.94,-1.76 0.97,-1.17 1.46,-2.63 1.46,-4.37 0,-1.71 -0.49,-3.15 -1.46,-4.33 -0.97,-1.17 -2.28,-1.76 -3.94,-1.76 -1.65,0 -2.96,0.59 -3.91,1.76 -0.96,1.17 -1.43,2.62 -1.43,4.33 0,1.74 0.48,3.2 1.43,4.37zm24.66 6.15l-5.52 0 0 -29.01 5.52 0 0 29.01zm25.18 0l-5.52 0 0 -2.65c-1.88,2.12 -4.35,3.17 -7.39,3.17 -2.26,0 -3.96,-0.58 -5.09,-1.74 -1.13,-1.16 -1.7,-2.78 -1.7,-4.87l0 -14.92 5.52 0 0 12.74c0,2.58 1.29,3.87 3.87,3.87 1.94,0 3.54,-0.8 4.78,-2.39l0 -14.22 5.52 0 0 21.01zm15.39 8.44c-2.03,0 -3.62,-0.46 -4.78,-1.39l1.09 -2.22c1.1,0.84 2.28,1.26 3.52,1.26 0.64,0 1.17,-0.12 1.61,-0.37 0.44,-0.25 0.65,-0.6 0.65,-1.07 0,-0.75 -0.42,-1.13 -1.26,-1.13 -0.52,0 -0.99,0.2 -1.39,0.61l-2 -1.13 0.91 -2.57c-2.87,-0.32 -5.19,-1.48 -6.96,-3.48 -1.77,-2 -2.65,-4.49 -2.65,-7.48 0,-3.22 1.04,-5.86 3.13,-7.92 2.09,-2.06 4.76,-3.09 8,-3.09 3.71,0 6.48,1.26 8.31,3.78l-3.61 3.39c-1.02,-1.51 -2.49,-2.26 -4.44,-2.26 -1.68,0 -3.05,0.56 -4.11,1.67 -1.06,1.12 -1.59,2.59 -1.59,4.42 0,1.83 0.53,3.3 1.59,4.44 1.06,1.13 2.43,1.7 4.11,1.7 1.88,0 3.36,-0.75 4.44,-2.26l3.61 3.35c-1.59,2.26 -3.97,3.52 -7.13,3.78l-0.7 1.65c0.49,-0.29 1.01,-0.44 1.57,-0.44 0.81,0 1.5,0.28 2.07,0.85 0.57,0.57 0.85,1.3 0.85,2.2 0,1.13 -0.46,2.03 -1.39,2.7 -0.93,0.67 -2.07,1 -3.44,1zm29.92 -8.44l-5.52 0 0 -2.17c-1.51,1.8 -3.73,2.7 -6.65,2.7 -1.89,0 -3.57,-0.62 -5.07,-1.85 -1.49,-1.23 -2.24,-2.94 -2.24,-5.11 0,-2.26 0.73,-3.96 2.2,-5.09 1.46,-1.13 3.17,-1.7 5.11,-1.7 2.99,0 5.2,0.86 6.65,2.57l0 -2.83c0,-1.07 -0.42,-1.93 -1.26,-2.57 -0.84,-0.64 -1.96,-0.96 -3.35,-0.96 -2.29,0 -4.33,0.83 -6.13,2.48l-2.09 -3.7c2.49,-2.2 5.55,-3.3 9.18,-3.3 2.7,0 4.9,0.62 6.61,1.87 1.71,1.25 2.57,3.28 2.57,6.09l0 13.57zm-9.96 -3.22c2.06,0 3.54,-0.61 4.44,-1.83l0 -2.61c-0.9,-1.22 -2.38,-1.83 -4.44,-1.83 -1.13,0 -2.07,0.28 -2.83,0.85 -0.75,0.57 -1.13,1.34 -1.13,2.33 0,0.96 0.38,1.71 1.13,2.26 0.75,0.55 1.7,0.83 2.83,0.83zm3.26 -20.87c-0.84,0 -1.57,-0.25 -2.17,-0.74 -0.61,-0.49 -1.14,-0.99 -1.59,-1.48 -0.45,-0.49 -0.89,-0.74 -1.33,-0.74 -1.04,0 -1.57,0.9 -1.57,2.7l-2.91 0c0,-1.86 0.41,-3.29 1.22,-4.31 0.81,-1.01 1.97,-1.52 3.48,-1.52 0.81,0 1.52,0.25 2.13,0.74 0.61,0.49 1.14,0.98 1.59,1.46 0.45,0.48 0.89,0.72 1.33,0.72 1.04,0 1.57,-0.88 1.57,-2.65l2.91 0c0,1.86 -0.4,3.29 -1.2,4.31 -0.8,1.02 -1.95,1.52 -3.46,1.52zm30.01 21.42c-2.03,2.13 -4.73,3.2 -8.09,3.2 -3.36,0 -6.05,-1.07 -8.07,-3.2 -2.02,-2.13 -3.02,-4.75 -3.02,-7.85 0,-3.1 1.01,-5.71 3.02,-7.83 2.02,-2.12 4.7,-3.17 8.07,-3.17 3.36,0 6.06,1.06 8.09,3.17 2.03,2.12 3.05,4.73 3.05,7.83 0,3.1 -1.02,5.72 -3.05,7.85zm-12 -3.48c0.96,1.17 2.26,1.76 3.91,1.76 1.65,0 2.96,-0.59 3.94,-1.76 0.97,-1.17 1.46,-2.63 1.46,-4.37 0,-1.71 -0.49,-3.15 -1.46,-4.33 -0.97,-1.17 -2.28,-1.76 -3.94,-1.76 -1.65,0 -2.96,0.59 -3.91,1.76 -0.96,1.17 -1.44,2.62 -1.44,4.33 0,1.74 0.48,3.2 1.44,4.37zm44.45 6.68c-4.41,0 -8.08,-1.4 -11.02,-4.2 -2.94,-2.8 -4.41,-6.4 -4.41,-10.81 0,-4.41 1.47,-8.01 4.41,-10.81 2.94,-2.8 6.62,-4.2 11.02,-4.2 5.42,0 9.47,2.36 12.13,7.09l-5.31 2.61c-0.64,-1.22 -1.57,-2.23 -2.81,-3.02 -1.23,-0.8 -2.57,-1.2 -4.02,-1.2 -2.64,0 -4.81,0.9 -6.52,2.7 -1.71,1.8 -2.57,4.07 -2.57,6.83 0,2.75 0.86,5.03 2.57,6.83 1.71,1.8 3.89,2.7 6.52,2.7 1.45,0 2.79,-0.39 4.02,-1.17 1.23,-0.78 2.17,-1.8 2.81,-3.04l5.31 2.57c-2.75,4.75 -6.8,7.13 -12.13,7.13zm33.53 -3.2c-2.03,2.13 -4.73,3.2 -8.09,3.2 -3.36,0 -6.05,-1.07 -8.07,-3.2 -2.02,-2.13 -3.02,-4.75 -3.02,-7.85 0,-3.1 1.01,-5.71 3.02,-7.83 2.02,-2.12 4.7,-3.17 8.07,-3.17 3.36,0 6.06,1.06 8.09,3.17 2.03,2.12 3.04,4.73 3.04,7.83 0,3.1 -1.01,5.72 -3.04,7.85zm-12 -3.48c0.96,1.17 2.26,1.76 3.91,1.76 1.65,0 2.96,-0.59 3.94,-1.76 0.97,-1.17 1.46,-2.63 1.46,-4.37 0,-1.71 -0.49,-3.15 -1.46,-4.33 -0.97,-1.17 -2.28,-1.76 -3.94,-1.76 -1.65,0 -2.96,0.59 -3.91,1.76 -0.96,1.17 -1.44,2.62 -1.44,4.33 0,1.74 0.48,3.2 1.44,4.37zm50.75 6.15l-5.57 0 0 -13.26c0,-2.23 -1.04,-3.35 -3.13,-3.35 -0.9,0 -1.73,0.25 -2.5,0.74 -0.77,0.49 -1.38,1.06 -1.85,1.7l0 14.18 -5.57 0 0 -13.26c0,-2.23 -1.04,-3.35 -3.13,-3.35 -0.87,0 -1.7,0.25 -2.48,0.74 -0.78,0.49 -1.41,1.07 -1.87,1.74l0 14.13 -5.52 0 0 -21.01 5.52 0 0 2.74c0.52,-0.75 1.44,-1.49 2.74,-2.2 1.3,-0.71 2.68,-1.07 4.13,-1.07 3.05,0 4.99,1.28 5.83,3.83 0.67,-1.04 1.66,-1.94 2.98,-2.7 1.32,-0.75 2.73,-1.13 4.24,-1.13 1.97,0 3.49,0.53 4.57,1.59 1.07,1.06 1.61,2.64 1.61,4.76l0 15.18zm17.44 0.52c-2.64,0 -4.8,-1.07 -6.48,-3.22l0 10.7 -5.52 0 0 -29.01 5.52 0 0 2.65c1.65,-2.12 3.81,-3.17 6.48,-3.17 2.75,0 4.99,0.98 6.72,2.93 1.73,1.96 2.59,4.65 2.59,8.07 0,3.42 -0.86,6.12 -2.59,8.09 -1.73,1.97 -3.96,2.96 -6.72,2.96zm-1.74 -4.91c1.59,0 2.88,-0.57 3.85,-1.7 0.97,-1.13 1.46,-2.61 1.46,-4.44 0,-1.8 -0.48,-3.26 -1.46,-4.39 -0.97,-1.13 -2.25,-1.7 -3.85,-1.7 -0.9,0 -1.8,0.23 -2.7,0.7 -0.9,0.46 -1.58,1.03 -2.04,1.7l0 7.44c0.46,0.67 1.15,1.23 2.07,1.7 0.91,0.46 1.81,0.7 2.67,0.7zm20.61 4.39l-5.52 0 0 -29.01 5.52 0 0 29.01zm15.35 0.52c-3.25,0 -5.93,-1.01 -8.05,-3.04 -2.12,-2.03 -3.17,-4.7 -3.17,-8 0,-3.1 1.02,-5.71 3.07,-7.83 2.05,-2.12 4.65,-3.17 7.81,-3.17 3.13,0 5.67,1.07 7.61,3.2 1.94,2.13 2.91,4.92 2.91,8.37l0 1.22 -15.61 0c0.17,1.39 0.8,2.55 1.87,3.48 1.07,0.93 2.46,1.39 4.17,1.39 0.93,0 1.93,-0.19 3.02,-0.56 1.09,-0.38 1.95,-0.88 2.59,-1.52l2.44 3.57c-2.12,1.94 -5,2.91 -8.65,2.91zm4.83 -13c-0.09,-1.19 -0.56,-2.26 -1.41,-3.22 -0.86,-0.96 -2.11,-1.44 -3.76,-1.44 -1.57,0 -2.78,0.47 -3.65,1.41 -0.87,0.94 -1.38,2.02 -1.52,3.24l10.35 0zm16.4 13c-1.94,0 -3.42,-0.49 -4.44,-1.48 -1.02,-0.99 -1.52,-2.41 -1.52,-4.26l0 -10.96 -3.48 0 0 -4.83 3.48 0 0 -5.74 5.57 0 0 5.74 4.26 0 0 4.83 -4.26 0 0 9.48c0,0.67 0.17,1.22 0.52,1.65 0.35,0.43 0.81,0.65 1.39,0.65 0.87,0 1.51,-0.2 1.91,-0.61l1.17 4.17c-1.02,0.9 -2.55,1.35 -4.61,1.35zm25.79 -0.52l-5.52 0 0 -2.17c-1.51,1.8 -3.73,2.7 -6.65,2.7 -1.89,0 -3.57,-0.62 -5.07,-1.85 -1.49,-1.23 -2.24,-2.94 -2.24,-5.11 0,-2.26 0.73,-3.96 2.2,-5.09 1.46,-1.13 3.17,-1.7 5.11,-1.7 2.99,0 5.2,0.86 6.65,2.57l0 -2.83c0,-1.07 -0.42,-1.93 -1.26,-2.57 -0.84,-0.64 -1.96,-0.96 -3.35,-0.96 -2.29,0 -4.33,0.83 -6.13,2.48l-2.09 -3.7c2.49,-2.2 5.55,-3.3 9.18,-3.3 2.7,0 4.9,0.62 6.61,1.87 1.71,1.25 2.57,3.28 2.57,6.09l0 13.57zm-9.96 -3.22c2.06,0 3.54,-0.61 4.44,-1.83l0 -2.61c-0.9,-1.22 -2.38,-1.83 -4.44,-1.83 -1.13,0 -2.07,0.28 -2.83,0.85 -0.75,0.57 -1.13,1.34 -1.13,2.33 0,0.96 0.38,1.71 1.13,2.26 0.75,0.55 1.7,0.83 2.83,0.83zm36.44 3.74c-3.25,0 -5.93,-1.01 -8.05,-3.04 -2.12,-2.03 -3.17,-4.7 -3.17,-8 0,-3.1 1.02,-5.71 3.07,-7.83 2.04,-2.12 4.65,-3.17 7.81,-3.17 3.13,0 5.67,1.07 7.61,3.2 1.94,2.13 2.91,4.92 2.91,8.37l0 1.22 -15.61 0c0.17,1.39 0.8,2.55 1.87,3.48 1.07,0.93 2.46,1.39 4.17,1.39 0.93,0 1.93,-0.19 3.02,-0.56 1.09,-0.38 1.95,-0.88 2.59,-1.52l2.44 3.57c-2.12,1.94 -5,2.91 -8.65,2.91zm4.83 -13c-0.09,-1.19 -0.56,-2.26 -1.41,-3.22 -0.86,-0.96 -2.11,-1.44 -3.76,-1.44 -1.57,0 -2.78,0.47 -3.65,1.41 -0.87,0.94 -1.38,2.02 -1.52,3.24l10.35 0zm40.97 12.48l-5.57 0 0 -13.26c0,-2.23 -1.04,-3.35 -3.13,-3.35 -0.9,0 -1.73,0.25 -2.5,0.74 -0.77,0.49 -1.38,1.06 -1.85,1.7l0 14.18 -5.57 0 0 -13.26c0,-2.23 -1.04,-3.35 -3.13,-3.35 -0.87,0 -1.7,0.25 -2.48,0.74 -0.78,0.49 -1.41,1.07 -1.87,1.74l0 14.13 -5.52 0 0 -21.01 5.52 0 0 2.74c0.52,-0.75 1.44,-1.49 2.74,-2.2 1.3,-0.71 2.68,-1.07 4.13,-1.07 3.04,0 4.99,1.28 5.83,3.83 0.67,-1.04 1.66,-1.94 2.98,-2.7 1.32,-0.75 2.73,-1.13 4.24,-1.13 1.97,0 3.49,0.53 4.57,1.59 1.07,1.06 1.61,2.64 1.61,4.76l0 15.18zm-394.49 52.97l-6.22 0 0 -20.31 -8.18 20.31 -2.7 0 -8.18 -20.31 0 20.31 -6.18 0 0 -29.01 8.65 0 7.05 17.53 7.05 -17.53 8.7 0 0 29.01zm23.75 0l-5.52 0 0 -2.17c-1.51,1.8 -3.73,2.7 -6.65,2.7 -1.88,0 -3.57,-0.62 -5.07,-1.85 -1.49,-1.23 -2.24,-2.94 -2.24,-5.11 0,-2.26 0.73,-3.96 2.2,-5.09 1.46,-1.13 3.17,-1.7 5.11,-1.7 2.99,0 5.2,0.86 6.65,2.57l0 -2.83c0,-1.07 -0.42,-1.93 -1.26,-2.57 -0.84,-0.64 -1.96,-0.96 -3.35,-0.96 -2.29,0 -4.33,0.83 -6.13,2.48l-2.09 -3.7c2.49,-2.2 5.55,-3.3 9.18,-3.3 2.7,0 4.9,0.62 6.61,1.87 1.71,1.25 2.57,3.28 2.57,6.09l0 13.57zm-9.96 -3.22c2.06,0 3.54,-0.61 4.44,-1.83l0 -2.61c-0.9,-1.22 -2.38,-1.83 -4.44,-1.83 -1.13,0 -2.07,0.28 -2.83,0.85 -0.75,0.57 -1.13,1.34 -1.13,2.33 0,0.96 0.38,1.71 1.13,2.26 0.75,0.55 1.7,0.83 2.83,0.83zm22.48 3.74c-1.94,0 -3.42,-0.49 -4.44,-1.48 -1.01,-0.99 -1.52,-2.41 -1.52,-4.26l0 -10.96 -3.48 0 0 -4.83 3.48 0 0 -5.74 5.57 0 0 5.74 4.26 0 0 4.83 -4.26 0 0 9.48c0,0.67 0.17,1.22 0.52,1.65 0.35,0.43 0.81,0.65 1.39,0.65 0.87,0 1.51,-0.2 1.91,-0.61l1.17 4.17c-1.02,0.9 -2.55,1.35 -4.61,1.35zm17.53 0c-3.25,0 -5.93,-1.01 -8.05,-3.04 -2.12,-2.03 -3.17,-4.7 -3.17,-8 0,-3.1 1.02,-5.71 3.07,-7.83 2.04,-2.12 4.65,-3.17 7.81,-3.17 3.13,0 5.67,1.07 7.61,3.2 1.94,2.13 2.91,4.92 2.91,8.37l0 1.22 -15.61 0c0.17,1.39 0.8,2.55 1.87,3.48 1.07,0.93 2.46,1.39 4.17,1.39 0.93,0 1.94,-0.19 3.02,-0.56 1.09,-0.38 1.95,-0.88 2.59,-1.52l2.44 3.57c-2.12,1.94 -5,2.91 -8.65,2.91zm4.83 -13c-0.09,-1.19 -0.56,-2.26 -1.41,-3.22 -0.86,-0.96 -2.11,-1.44 -3.76,-1.44 -1.57,0 -2.78,0.47 -3.65,1.41 -0.87,0.94 -1.38,2.02 -1.52,3.24l10.35 0zm14.87 12.48l-5.52 0 0 -21.01 5.52 0 0 2.87c0.78,-0.98 1.78,-1.8 3,-2.44 1.22,-0.64 2.45,-0.96 3.7,-0.96l0 5.39c-0.38,-0.09 -0.88,-0.13 -1.52,-0.13 -0.93,0 -1.91,0.23 -2.96,0.7 -1.04,0.46 -1.78,1.03 -2.22,1.7l0 13.87zm12.87 -23.27c-0.9,0 -1.67,-0.33 -2.33,-0.98 -0.65,-0.65 -0.98,-1.43 -0.98,-2.33 0,-0.9 0.33,-1.67 0.98,-2.3 0.65,-0.64 1.43,-0.96 2.33,-0.96 0.93,0 1.71,0.32 2.35,0.96 0.64,0.64 0.96,1.41 0.96,2.3 0,0.9 -0.32,1.67 -0.96,2.33 -0.64,0.65 -1.42,0.98 -2.35,0.98zm2.78 23.27l-5.52 0 0 -21.01 5.52 0 0 21.01zm23.62 0l-5.52 0 0 -2.17c-1.51,1.8 -3.73,2.7 -6.65,2.7 -1.88,0 -3.57,-0.62 -5.07,-1.85 -1.49,-1.23 -2.24,-2.94 -2.24,-5.11 0,-2.26 0.73,-3.96 2.2,-5.09 1.46,-1.13 3.17,-1.7 5.11,-1.7 2.99,0 5.2,0.86 6.65,2.57l0 -2.83c0,-1.07 -0.42,-1.93 -1.26,-2.57 -0.84,-0.64 -1.96,-0.96 -3.35,-0.96 -2.29,0 -4.33,0.83 -6.13,2.48l-2.09 -3.7c2.49,-2.2 5.55,-3.3 9.18,-3.3 2.7,0 4.9,0.62 6.61,1.87 1.71,1.25 2.57,3.28 2.57,6.09l0 13.57zm-9.96 -3.22c2.06,0 3.54,-0.61 4.44,-1.83l0 -2.61c-0.9,-1.22 -2.38,-1.83 -4.44,-1.83 -1.13,0 -2.07,0.28 -2.83,0.85 -0.75,0.57 -1.13,1.34 -1.13,2.33 0,0.96 0.38,1.71 1.13,2.26 0.75,0.55 1.7,0.83 2.83,0.83zm18.18 -20.05c-0.9,0 -1.67,-0.33 -2.33,-0.98 -0.65,-0.65 -0.98,-1.43 -0.98,-2.33 0,-0.9 0.33,-1.67 0.98,-2.3 0.65,-0.64 1.43,-0.96 2.33,-0.96 0.93,0 1.71,0.32 2.35,0.96 0.64,0.64 0.96,1.41 0.96,2.3 0,0.9 -0.32,1.67 -0.96,2.33 -0.64,0.65 -1.42,0.98 -2.35,0.98zm2.78 23.27l-5.52 0 0 -21.01 5.52 0 0 21.01zm13.05 0.52c-1.83,0 -3.57,-0.29 -5.24,-0.87 -1.67,-0.58 -3.05,-1.38 -4.15,-2.39l2.39 -3.87c0.81,0.75 1.91,1.42 3.3,2 1.39,0.58 2.71,0.87 3.96,0.87 1.16,0 2.04,-0.2 2.63,-0.61 0.59,-0.41 0.89,-0.96 0.89,-1.65 0,-0.52 -0.31,-0.95 -0.93,-1.28 -0.62,-0.33 -1.39,-0.57 -2.3,-0.72 -0.91,-0.15 -1.91,-0.36 -3,-0.65 -1.09,-0.29 -2.09,-0.64 -3,-1.04 -0.91,-0.41 -1.68,-1.05 -2.3,-1.93 -0.62,-0.88 -0.94,-1.98 -0.94,-3.28 0,-1.86 0.77,-3.42 2.31,-4.7 1.54,-1.27 3.64,-1.91 6.31,-1.91 3.25,0 6.07,0.96 8.48,2.87l-2.22 3.78c-0.67,-0.7 -1.56,-1.28 -2.67,-1.74 -1.12,-0.46 -2.3,-0.7 -3.54,-0.7 -0.99,0 -1.78,0.2 -2.39,0.59 -0.61,0.39 -0.91,0.89 -0.91,1.5 0,0.46 0.3,0.85 0.91,1.15 0.61,0.3 1.38,0.53 2.3,0.67 0.93,0.14 1.93,0.37 3,0.67 1.07,0.3 2.07,0.67 3,1.09 0.93,0.42 1.7,1.09 2.3,2.02 0.61,0.93 0.91,2.06 0.91,3.39 0,1.97 -0.8,3.59 -2.41,4.85 -1.61,1.26 -3.83,1.89 -6.68,1.89zm44.32 -0.52l-5.57 0 0 -2.7c-1.71,2.15 -3.87,3.22 -6.48,3.22 -2.73,0 -4.96,-0.98 -6.7,-2.94 -1.74,-1.96 -2.61,-4.65 -2.61,-8.07 0,-3.36 0.87,-6.05 2.61,-8.05 1.74,-2 3.97,-3 6.7,-3 2.67,0 4.83,1.07 6.48,3.22l0 -10.7 5.57 0 0 29.01zm-10.35 -4.39c0.93,0 1.84,-0.22 2.74,-0.67 0.9,-0.45 1.58,-1.02 2.04,-1.72l0 -7.44c-0.46,-0.7 -1.15,-1.27 -2.04,-1.72 -0.9,-0.45 -1.81,-0.67 -2.74,-0.67 -1.57,0 -2.84,0.57 -3.83,1.7 -0.98,1.13 -1.48,2.61 -1.48,4.44 0,1.8 0.49,3.26 1.48,4.39 0.99,1.13 2.26,1.7 3.83,1.7zm25.7 4.91c-3.25,0 -5.93,-1.01 -8.05,-3.04 -2.12,-2.03 -3.17,-4.7 -3.17,-8 0,-3.1 1.02,-5.71 3.07,-7.83 2.04,-2.12 4.65,-3.17 7.81,-3.17 3.13,0 5.67,1.07 7.61,3.2 1.94,2.13 2.91,4.92 2.91,8.37l0 1.22 -15.61 0c0.17,1.39 0.8,2.55 1.87,3.48 1.07,0.93 2.46,1.39 4.17,1.39 0.93,0 1.93,-0.19 3.02,-0.56 1.09,-0.38 1.95,-0.88 2.59,-1.52l2.44 3.57c-2.12,1.94 -5,2.91 -8.65,2.91zm4.83 -13c-0.09,-1.19 -0.56,-2.26 -1.41,-3.22 -0.86,-0.96 -2.11,-1.44 -3.76,-1.44 -1.57,0 -2.78,0.47 -3.65,1.41 -0.87,0.94 -1.38,2.02 -1.52,3.24l10.35 0zm41.14 12.48l-20.53 0 0 -29.01 20.53 0 0 5.44 -14.35 0 0 6.13 14.05 0 0 5.44 -14.05 0 0 6.57 14.35 0 0 5.44zm12.26 0.52c-1.83,0 -3.57,-0.29 -5.24,-0.87 -1.67,-0.58 -3.05,-1.38 -4.15,-2.39l2.39 -3.87c0.81,0.75 1.91,1.42 3.3,2 1.39,0.58 2.71,0.87 3.96,0.87 1.16,0 2.04,-0.2 2.63,-0.61 0.59,-0.41 0.89,-0.96 0.89,-1.65 0,-0.52 -0.31,-0.95 -0.94,-1.28 -0.62,-0.33 -1.39,-0.57 -2.3,-0.72 -0.91,-0.15 -1.91,-0.36 -3,-0.65 -1.09,-0.29 -2.09,-0.64 -3,-1.04 -0.91,-0.41 -1.68,-1.05 -2.3,-1.93 -0.62,-0.88 -0.94,-1.98 -0.94,-3.28 0,-1.86 0.77,-3.42 2.3,-4.7 1.54,-1.27 3.64,-1.91 6.31,-1.91 3.25,0 6.07,0.96 8.48,2.87l-2.22 3.78c-0.67,-0.7 -1.56,-1.28 -2.68,-1.74 -1.12,-0.46 -2.3,-0.7 -3.54,-0.7 -0.99,0 -1.78,0.2 -2.39,0.59 -0.61,0.39 -0.91,0.89 -0.91,1.5 0,0.46 0.3,0.85 0.91,1.15 0.61,0.3 1.38,0.53 2.31,0.67 0.93,0.14 1.93,0.37 3,0.67 1.07,0.3 2.07,0.67 3,1.09 0.93,0.42 1.7,1.09 2.31,2.02 0.61,0.93 0.91,2.06 0.91,3.39 0,1.97 -0.8,3.59 -2.41,4.85 -1.61,1.26 -3.83,1.89 -6.68,1.89zm22.96 0c-3.25,0 -5.91,-1.03 -8,-3.09 -2.09,-2.06 -3.13,-4.71 -3.13,-7.96 0,-3.22 1.05,-5.86 3.13,-7.92 2.09,-2.06 4.76,-3.09 8,-3.09 3.71,0 6.48,1.26 8.31,3.78l-3.61 3.39c-1.01,-1.51 -2.49,-2.26 -4.44,-2.26 -1.68,0 -3.05,0.56 -4.11,1.67 -1.06,1.12 -1.59,2.59 -1.59,4.42 0,1.83 0.53,3.3 1.59,4.44 1.06,1.13 2.43,1.7 4.11,1.7 1.88,0 3.36,-0.75 4.44,-2.26l3.61 3.35c-1.83,2.55 -4.6,3.83 -8.31,3.83zm17.44 -0.52l-5.52 0 0 -21.01 5.52 0 0 2.87c0.78,-0.98 1.78,-1.8 3,-2.44 1.22,-0.64 2.45,-0.96 3.7,-0.96l0 5.39c-0.38,-0.09 -0.88,-0.13 -1.52,-0.13 -0.93,0 -1.91,0.23 -2.96,0.7 -1.04,0.46 -1.78,1.03 -2.22,1.7l0 13.87zm12.87 -23.27c-0.9,0 -1.67,-0.33 -2.33,-0.98 -0.65,-0.65 -0.98,-1.43 -0.98,-2.33 0,-0.9 0.33,-1.67 0.98,-2.3 0.65,-0.64 1.43,-0.96 2.33,-0.96 0.93,0 1.71,0.32 2.35,0.96 0.64,0.64 0.96,1.41 0.96,2.3 0,0.9 -0.32,1.67 -0.96,2.33 -0.64,0.65 -1.42,0.98 -2.35,0.98zm2.78 23.27l-5.52 0 0 -21.01 5.52 0 0 21.01zm12.53 0.52c-1.94,0 -3.42,-0.49 -4.44,-1.48 -1.01,-0.99 -1.52,-2.41 -1.52,-4.26l0 -10.96 -3.48 0 0 -4.83 3.48 0 0 -5.74 5.57 0 0 5.74 4.26 0 0 4.83 -4.26 0 0 9.48c0,0.67 0.17,1.22 0.52,1.65 0.35,0.43 0.81,0.65 1.39,0.65 0.87,0 1.51,-0.2 1.91,-0.61l1.17 4.17c-1.01,0.9 -2.55,1.35 -4.61,1.35zm25.57 -30.96l-7.05 6.26 -3.87 0 5.83 -6.26 5.09 0zm-0.09 27.77c-2.03,2.13 -4.73,3.2 -8.09,3.2 -3.36,0 -6.05,-1.07 -8.07,-3.2 -2.02,-2.13 -3.02,-4.75 -3.02,-7.85 0,-3.1 1.01,-5.71 3.02,-7.83 2.02,-2.12 4.7,-3.17 8.07,-3.17 3.36,0 6.06,1.06 8.09,3.17 2.03,2.12 3.04,4.73 3.04,7.83 0,3.1 -1.01,5.72 -3.04,7.85zm-12 -3.48c0.96,1.17 2.26,1.76 3.91,1.76 1.65,0 2.96,-0.59 3.94,-1.76 0.97,-1.17 1.46,-2.63 1.46,-4.37 0,-1.71 -0.49,-3.15 -1.46,-4.33 -0.97,-1.17 -2.28,-1.76 -3.94,-1.76 -1.65,0 -2.96,0.59 -3.91,1.76 -0.96,1.17 -1.44,2.62 -1.44,4.33 0,1.74 0.48,3.2 1.44,4.37zm24.66 6.15l-5.52 0 0 -21.01 5.52 0 0 2.87c0.78,-0.98 1.78,-1.8 3,-2.44 1.22,-0.64 2.45,-0.96 3.7,-0.96l0 5.39c-0.38,-0.09 -0.88,-0.13 -1.52,-0.13 -0.93,0 -1.91,0.23 -2.96,0.7 -1.04,0.46 -1.78,1.03 -2.22,1.7l0 13.87zm12.87 -23.27c-0.9,0 -1.67,-0.33 -2.33,-0.98 -0.65,-0.65 -0.98,-1.43 -0.98,-2.33 0,-0.9 0.33,-1.67 0.98,-2.3 0.65,-0.64 1.43,-0.96 2.33,-0.96 0.93,0 1.71,0.32 2.35,0.96 0.64,0.64 0.96,1.41 0.96,2.3 0,0.9 -0.32,1.67 -0.96,2.33 -0.64,0.65 -1.42,0.98 -2.35,0.98zm2.78 23.27l-5.52 0 0 -21.01 5.52 0 0 21.01zm23.31 -2.67c-2.03,2.13 -4.73,3.2 -8.09,3.2 -3.36,0 -6.05,-1.07 -8.07,-3.2 -2.02,-2.13 -3.02,-4.75 -3.02,-7.85 0,-3.1 1.01,-5.71 3.02,-7.83 2.02,-2.12 4.7,-3.17 8.07,-3.17 3.36,0 6.06,1.06 8.09,3.17 2.03,2.12 3.04,4.73 3.04,7.83 0,3.1 -1.02,5.72 -3.04,7.85zm-12 -3.48c0.96,1.17 2.26,1.76 3.91,1.76 1.65,0 2.96,-0.59 3.94,-1.76 0.97,-1.17 1.46,-2.63 1.46,-4.37 0,-1.71 -0.49,-3.15 -1.46,-4.33 -0.97,-1.17 -2.28,-1.76 -3.94,-1.76 -1.65,0 -2.96,0.59 -3.91,1.76 -0.96,1.17 -1.43,2.62 -1.43,4.33 0,1.74 0.48,3.2 1.43,4.37zm24.27 5.59c-0.7,0.7 -1.52,1.04 -2.48,1.04 -0.96,0 -1.78,-0.35 -2.48,-1.04 -0.7,-0.7 -1.04,-1.52 -1.04,-2.48 0,-0.96 0.35,-1.78 1.04,-2.48 0.7,-0.7 1.52,-1.04 2.48,-1.04 0.96,0 1.78,0.35 2.48,1.04 0.7,0.7 1.04,1.52 1.04,2.48 0,0.96 -0.35,1.78 -1.04,2.48z"/>
 </g>
</svg>
